HIERARCHY
ROOT Hips
{
	OFFSET	0.00	0.00	0.00
	CHANNELS 6 Xposition Yposition Zposition Zrotation Xrotation Yrotation
	JOINT LeftUpLeg
	{
		OFFSET	 0.126116	-0.014019	-0.065224
		CHANNELS 3 Zrotation Xrotation Yrotation
		JOINT LeftLeg
		{
			OFFSET	 0.000000	 0.000000	 0.569914
			CHANNELS 3 Zrotation Xrotation Yrotation
			JOINT LeftFoot
			{
				OFFSET	 0.000000	 0.000000	 0.544423
				CHANNELS 3 Zrotation Xrotation Yrotation
				JOINT LeftToeBase
				{
					OFFSET	 0.000000	 0.000000	 0.207117
					CHANNELS 3 Zrotation Xrotation Yrotation
					End Site
					{
						OFFSET	 0.000000	 0.000000	 0.207117
					}
				}
			}
		}
	}
	JOINT RightUpLeg
	{
		OFFSET	-0.124023	-0.008373	-0.065224
		CHANNELS 3 Zrotation Xrotation Yrotation
		JOINT RightLeg
		{
			OFFSET	 0.000000	 0.000000	 0.570047
			CHANNELS 3 Zrotation Xrotation Yrotation
			JOINT RightFoot
			{
				OFFSET	 0.000000	 0.000000	 0.544354
				CHANNELS 3 Zrotation Xrotation Yrotation
				JOINT RightToeBase
				{
					OFFSET	 0.000000	 0.000000	 0.207540
					CHANNELS 3 Zrotation Xrotation Yrotation
					End Site
					{
						OFFSET	 0.000000	 0.000000	 0.207540
					}
				}
			}
		}
	}
	JOINT Spine
	{
		OFFSET	 0.000184	-0.007763	 0.117403
		CHANNELS 3 Zrotation Xrotation Yrotation
		JOINT Spine1
		{
			OFFSET	 0.000000	 0.000000	 0.137269
			CHANNELS 3 Zrotation Xrotation Yrotation
			JOINT Spine2
			{
				OFFSET	 0.000000	 0.000000	 0.156879
				CHANNELS 3 Zrotation Xrotation Yrotation
				JOINT LeftShoulder
				{
					OFFSET	 0.080501	-0.002496	 0.160144
					CHANNELS 3 Zrotation Xrotation Yrotation
					JOINT LeftArm
					{
						OFFSET	 0.000000	 0.000000	 0.164363
						CHANNELS 3 Zrotation Xrotation Yrotation
						JOINT LeftForeArm
						{
							OFFSET	 0.000000	 0.000000	 0.364576
							CHANNELS 3 Zrotation Xrotation Yrotation
							JOINT LeftHand
							{
								OFFSET	 0.000000	 0.000000	 0.360812
								CHANNELS 3 Zrotation Xrotation Yrotation
								JOINT LeftHandIndex1
								{
									OFFSET	 0.000000	 0.000000	 0.086006
									CHANNELS 3 Zrotation Xrotation Yrotation
									JOINT LeftHandIndex2
									{
										OFFSET	 0.000000	 0.000000	 0.047236
										CHANNELS 3 Zrotation Xrotation Yrotation
										JOINT LeftHandIndex3
										{
											OFFSET	-0.004284	-0.000551	 0.038166
											CHANNELS 3 Zrotation Xrotation Yrotation
											End Site
											{
												OFFSET	-0.004284	-0.000551	 0.038166
											}
										}
									}
								}
							}
						}
					}
				}
				JOINT Neck
				{
					OFFSET	 0.000000	 0.000000	 0.176489
					CHANNELS 3 Zrotation Xrotation Yrotation
					JOINT Head
					{
						OFFSET	 0.000000	-0.001747	 0.077940
						CHANNELS 3 Zrotation Xrotation Yrotation
						End Site
						{
							OFFSET	 0.000000	-0.001747	 0.077940
						}
					}
				}
				JOINT RightShoulder
				{
					OFFSET	-0.080363	 0.000306	 0.159706
					CHANNELS 3 Zrotation Xrotation Yrotation
					JOINT RightArm
					{
						OFFSET	 0.000000	 0.000000	 0.164196
						CHANNELS 3 Zrotation Xrotation Yrotation
						JOINT RightForeArm
						{
							OFFSET	 0.000000	 0.000000	 0.365611
							CHANNELS 3 Zrotation Xrotation Yrotation
							JOINT RightHand
							{
								OFFSET	 0.000000	 0.000000	 0.360648
								CHANNELS 3 Zrotation Xrotation Yrotation
								JOINT RightHandIndex1
								{
									OFFSET	 0.000000	 0.000000	 0.069977
									CHANNELS 3 Zrotation Xrotation Yrotation
									JOINT RightHandIndex2
									{
										OFFSET	 0.000000	 0.000000	 0.052305
										CHANNELS 3 Zrotation Xrotation Yrotation
										JOINT RightHandIndex3
										{
											OFFSET	 0.009002	-0.000782	 0.042196
											CHANNELS 3 Zrotation Xrotation Yrotation
											End Site
											{
												OFFSET	 0.009002	-0.000782	 0.042196
											}
										}
									}
								}
							}
						}
					}
				}
			}
		}
	}
}
MOTION
Frames:    9
Frame Time: 0.03333334
 0.012486	 0.026747	 1.200254	 4.590270	-1.278652	-2.728608	 11.859560	-9.660419	-175.123400	 0.707211	-39.056790	 0.223365	 66.545250	 83.101240	-70.389170	-2.370284	 31.466550	-0.066563	-17.187780	-32.654740	-176.557500	 9.793058	-48.485130	 7.939720	 4.645951	 70.000130	 1.262123	 2.358462	 33.074930	 0.104966	-12.529120	 8.614506	 2.129597	-2.201129	 2.543444	-1.539847	 3.309210	-2.322872	 1.654522	-93.881250	 58.910790	 175.516800	 8.396676	 29.370200	-42.646920	-4.022432	 0.057483	-2.013048	-2.931393	-21.609740	-8.021430	-4.870460	 19.227590	-2.788330	-3.881847	 21.468740	 2.203072	-4.806997	 5.560404	 0.146100	-0.093608	-5.053977	 0.175110	 1.109206	 1.887228	 2.789903	 89.798090	 61.624240	-179.962000	-20.149290	 52.174070	 13.781550	 1.362278	-0.365105	 4.753916	-3.075032	-7.440890	 0.870138	 6.296929	 25.215480	-0.553551	 1.836345	 45.094940	-6.949252	 0.473757	 24.506110	 3.594977
 0.010692	-0.010607	 1.197973	 5.068101	-0.985531	-2.716934	 11.285070	-7.763391	-175.749900	 1.022498	-38.336440	 0.415456	 76.957310	 84.086230	-80.966910	-2.369440	 31.607290	-0.069755	-18.721910	-34.316960	-177.763000	 9.246267	-42.715590	 6.823811	 1.560485	 68.142880	 4.504573	 2.358906	 33.008990	 0.103430	-16.893650	 8.404012	 2.039470	-2.323038	 2.961569	-1.511472	 3.208879	-2.786867	 1.661993	-93.974750	 58.959140	 175.311400	 7.061977	 27.438940	-43.316830	-6.421321	 0.219416	-3.004318	-4.331079	-22.851900	-9.417707	-4.869634	 19.256250	-2.791832	-3.877586	 21.523220	 2.198750	-4.806024	 5.571911	 0.145426	-0.066927	-5.084551	 0.191245	 1.079737	 1.728136	 2.687236	 89.767740	 61.664880	 179.965700	-20.173820	 53.218210	 11.289470	 3.142203	-0.297859	 7.367630	-1.978309	-8.483897	 0.952316	 6.290361	 24.552360	-0.537623	 1.924652	 44.382220	-7.027986	 0.583053	 24.026570	 3.539593
 0.008480	-0.052259	 1.194685	 5.522101	-0.531309	-2.734532	 10.734570	-5.649903	-176.409300	 1.198117	-37.279670	 0.512089	 89.913970	 84.872640	-93.980390	-2.368654	 31.738180	-0.072718	-20.477900	-35.102550	-179.270800	 8.844460	-34.694120	 5.500426	-2.015915	 65.387810	 8.131902	 2.358987	 32.996760	 0.103149	-21.248790	 8.044740	 1.905865	-2.465797	 3.365338	-1.422527	 3.070280	-3.269881	 1.631532	-94.089870	 58.977730	 175.063600	 5.613149	 25.487450	-43.926140	-8.644833	 0.457994	-4.024199	-5.555099	-24.185740	-10.548390	-4.865602	 19.359750	-2.798614	-3.871082	 21.606220	 2.192140	-4.804556	 5.589163	 0.144411	-0.043258	-5.101835	 0.225122	 0.999069	 1.571813	 2.613686	 89.723010	 61.745720	 179.858600	-19.997130	 53.986870	 10.578890	 4.792529	 0.267410	 5.836988	-0.971520	-9.523240	 1.030780	 6.279019	 23.744600	-0.548929	 2.019732	 43.592040	-7.112391	 0.757797	 23.251300	 3.452614
 0.005780	-0.093960	 1.189790	 5.980944	-0.039778	-2.798196	 10.225830	-3.552888	-177.051800	 1.375133	-36.185010	 0.603667	 106.117600	 85.390370	-110.247400	-2.367664	 31.901100	-0.076421	-22.228150	-35.358610	 179.164100	 8.694761	-26.773660	 4.289155	-4.484824	 64.050160	 10.239780	 2.359344	 32.945520	 0.101956	-25.685160	 7.638618	 1.787470	-2.593322	 3.653922	-1.316964	 2.884695	-3.720944	 1.575131	-94.213890	 58.993590	 174.797000	 4.533416	 23.788060	-44.404380	-11.052340	 0.792357	-5.091167	-6.955524	-25.563500	-11.706510	-4.860117	 19.494520	-2.806413	-3.863272	 21.705690	 2.184200	-4.802136	 5.617693	 0.142743	-0.019955	-5.125075	 0.262589	 0.873449	 1.403667	 2.541666	 89.668080	 61.835200	 179.726400	-19.675660	 54.678420	 9.502952	 6.487069	 0.737838	 5.157256	 0.038162	-10.557480	 1.074788	 6.265275	 22.812230	-0.566323	 2.121605	 42.718170	-7.202388	 0.960150	 22.340390	 3.354351
 0.003329	-0.127324	 1.183791	 6.196406	 0.369615	-3.001909	 10.027750	-1.814266	-177.455900	 1.467858	-35.372560	 0.645604	 122.593200	 85.472990	-126.747200	-2.366349	 32.111670	-0.081220	-23.113800	-36.856830	 178.045100	 8.936022	-23.047740	 3.826098	-5.661518	 63.307470	 10.967870	 2.360614	 32.756400	 0.097573	-29.168660	 7.227215	 1.823133	-2.659091	 3.972570	-1.184994	 2.708023	-4.102351	 1.483337	-94.308960	 58.988370	 174.595200	 3.862586	 22.646900	-44.824480	-13.360410	 1.147050	-5.994201	-8.304523	-26.891350	-12.191540	-4.851547	 19.688950	-2.814293	-3.854176	 21.821150	 2.174963	-4.796954	 5.678634	 0.139165	-0.010796	-5.161240	 0.294826	 0.716070	 1.263394	 2.521260	 89.599260	 61.912800	 179.559800	-19.283200	 55.203200	 8.010521	 7.695643	 1.085595	 6.062750	 0.676299	-11.370040	 0.860624	 6.248824	 21.856620	-0.599852	 2.206958	 41.963490	-7.277421	 1.177059	 21.348480	 3.252028
 0.000540	-0.160212	 1.176562	 6.385180	 0.737665	-3.209782	 9.842774	-0.032481	-177.883600	 1.552090	-34.567270	 0.680557	 138.485900	 85.256990	-142.659600	-2.364539	 32.398270	-0.087783	-23.750490	-39.351520	 176.966500	 9.309973	-21.678880	 3.726668	-6.399678	 64.532650	 11.200200	 2.360616	 32.756550	 0.097571	-32.382370	 6.825511	 1.865158	-2.706896	 4.298877	-1.044086	 2.508432	-4.478577	 1.376309	-94.395720	 58.981610	 174.411200	 3.325902	 21.696810	-45.221300	-15.597530	 1.551963	-6.862605	-9.674582	-28.071300	-12.697380	-4.842391	 19.889750	-2.820909	-3.844260	 21.946690	 2.164888	-4.790224	 5.757909	 0.134511	-0.000284	-5.200719	 0.323436	 0.536595	 1.120546	 2.494137	 89.532400	 61.983870	 179.397300	-18.787470	 55.620410	 6.534256	 8.820741	 1.483101	 6.931690	 1.275457	-12.138030	 0.598409	 6.230733	 20.847420	-0.636570	 2.305782	 41.062970	-7.363854	 1.400138	 20.311800	 3.150115
-0.002657	-0.196608	 1.168534	 6.456509	 0.953891	-3.419616	 9.725554	 2.283951	-178.400600	 1.600210	-33.272800	 0.684476	 151.668800	 85.096790	-155.812700	-2.360466	 33.015680	-0.102023	-23.764720	-42.001680	 176.138100	 9.296710	-21.489380	 3.716364	-6.481687	 69.449230	 10.659680	 2.355051	 33.563670	 0.116382	-35.521100	 6.444039	 1.941578	-2.742682	 4.773134	-0.913991	 2.296171	-4.890670	 1.259470	-94.449300	 58.967970	 174.299300	 2.732766	 20.980750	-45.541300	-17.877880	 2.037185	-7.750432	-11.244720	-28.980200	-13.216910	-4.830575	 20.122400	-2.822165	-3.830665	 22.118060	 2.151081	-4.776659	 5.917230	 0.125119	 0.016244	-5.255383	 0.337104	 0.338129	 0.950560	 2.444245	 89.471530	 62.028430	 179.249200	-18.046790	 55.935340	 4.910698	 9.878016	 1.960397	 7.825827	 1.859243	-13.024200	 0.099052	 6.206524	 19.586110	-0.687637	 2.468000	 39.519700	-7.504636	 1.664726	 19.060790	 3.033733
-0.005536	-0.229873	 1.162265	 6.546853	 1.092323	-3.584241	 9.600492	 4.588193	-178.880800	 1.653029	-31.534690	 0.680163	 160.322800	 85.252820	-164.452600	-2.355245	 33.763710	-0.119493	-23.694250	-43.526440	 175.626000	 9.418364	-21.342070	 3.737642	-6.010445	 73.451820	 9.567586	 2.349193	 34.362630	 0.135261	-38.026950	 6.198553	 1.997978	-2.788371	 4.947383	-0.837156	 2.084161	-5.177286	 1.161069	-94.491850	 58.950820	 174.211500	 2.343464	 20.517670	-45.557240	-19.716780	 2.496068	-8.485782	-12.634150	-29.757420	-13.837220	-4.826102	 20.300410	-2.849231	-3.817794	 22.279580	 2.138012	-4.762455	 6.083638	 0.115267	 0.037483	-5.304235	 0.347035	 0.149871	 0.815131	 2.365563	 89.422860	 62.044820	 179.131000	-17.339760	 56.123130	 3.497963	 10.761120	 2.412962	 8.561201	 2.397457	-13.800770	-0.313549	 6.186887	 18.458220	-0.716545	 2.608449	 38.114600	-7.625329	 1.897515	 17.941310	 2.935487
-0.008863	-0.270665	 1.156551	 6.719827	 1.112482	-3.721270	 9.408759	 7.885566	-179.522100	 1.744656	-28.373910	 0.661580	 168.253300	 86.295560	-172.386600	-2.344379	 35.192330	-0.153513	-23.877120	-43.681020	 175.154600	 9.867407	-20.697450	 3.793449	-4.822434	 76.007210	 7.494944	 2.339968	 35.526600	 0.163276	-40.710140	 6.163165	 2.042343	-2.883905	 4.707344	-0.833376	 1.819399	-5.407603	 1.071784	-94.527860	 58.916770	 174.140400	 1.959576	 20.255120	-45.116710	-21.496680	 3.054355	-9.280246	-14.339670	-30.738760	-15.029790	-4.837367	 20.430400	-2.952572	-3.800570	 22.494730	 2.120516	-4.739852	 6.347660	 0.099552	 0.080434	-5.362435	 0.352591	-0.062929	 0.691943	 2.183112	 89.380220	 61.999980	 179.029600	-16.429350	 56.216020	 1.777443	 11.774640	 2.966443	 9.357205	 3.160936	-14.833860	-0.708183	 6.171107	 17.113620	-0.705295	 2.773978	 36.371270	-7.766018	 2.170809	 16.605070	 2.825258
